<?xml version="1.0" encoding="UTF-8"?><svg id="Layer_1" xmlns="http://www.w3.org/2000/svg" width="300" height="300" xmlns:xlink="http://www.w3.org/1999/xlink" viewBox="0 0 300 300"><defs><style>.cls-1{fill:#fff;}.cls-2{clip-path:url(#clippath-1);}.cls-3{opacity:.1;}.cls-4{opacity:0;}.cls-5{clip-path:url(#clippath);}.cls-6{fill:none;}.cls-7{fill:#fafcfd;}.cls-8{fill:#26a9e0;}</style><clipPath id="clippath"><rect class="cls-6" x="-432.4" y="-531.6" width="1544" height="500"/></clipPath><clipPath id="clippath-1"><path class="cls-6" d="M1109.1-31.6H-432.4V-97.9c24.3-10.7,50.5-17,77.1-18.1,67.5-2.8,132.2,25.9,199.3,33.8C-5.2-64.5,144.6-152.8,294.5-128.4c45.9,7.5,97.2,24.4,135.8-1.6,30.6-20.6,41.6-62.1,71.8-83.2,43.3-30.3,102.4-6.3,155.1-9.9,72-4.9,128.2-61.1,176.9-114.8,1.1-1.2,2.2-2.4,3.3-3.6-1.2,1.4-2.4,2.9-3.5,4.4-13.4,18.5-18.4,44.6-14.7,66.9,4,24.2,19.2,46.3,40.3,58.6,24.9,14.5,59.8,19,70.9,45.5,7.8,18.7-.4,41.7,8.9,59.7,12.1,23.5,44.3,24.5,70.5,27.9,37,4.9,71.7,22,99.3,47Z"/></clipPath></defs><g class="cls-5"><g><path class="cls-7" d="M77.2-53.5c-2.5,0-5-.1-7.5-.1,2.6-2.3,5.3-4.5,8-6.8-1.5,0-3.1-.2-4.6-.2-1.7-.3-3.5-.5-5.2-.8-.9,.6-3.8,2.3-5.7,3.4-.4,.2-.7,.4-1,.5-2.3,.8-3.8-.4-3.9-.4-1.6-1-3.1-2-4.7-2.9-.8-.2-1.5-.3-2.3-.5-.8-.2-1.6-.3-2.4-.5-.6,.4-1.1,.8-1.7,1.2-1.6,1.5-3.6,2.9-5.4,3.7-2.4,1.1-4.8,2.2-7.2,3.4,0,0,0,.2,0,.2,0,.6,0,1.5-.1,2.4,0,.5-.1,1.2-.3,1.8,0,.2-.1,.4-.2,.5-.2,.4-.3,.8-.5,1.1,0,0,0,.2-.1,.3-.3,.7-.6,1.3-.6,1.8,0,.2,.2,.7,.5,1.3,.3,.6,.7,1.3,1,2,.2,.4,.5,.9,.7,1.2,.4,.7,.8,1.3,1,1.8,.7,1.6,1.5,3.2,2.2,4.8,0,.1-.5,3-3.4,4.7-.4,.2-.4,.4-.4,.5,0,.7,1.3,1.7,2.4,2.2l.2,.2c.5,.9,3.2,5.6,3.3,6.6,0,.4,1.5,1.2,2.3,1.6,1.1,.6,1.7,.9,1.8,1.3,.8,1.6,1.6,3.2,2.4,4.8,.4,.7,2.1,4.5,.8,6.2-.3,.4-.3,.5,.5,.8,.5,.2,1.1,.5,.9,1.1,0,0,0,0,0,.2,0,.1,0,.3,.1,.4h0c0,0,0,.2,.1,.2,0,0,0,0,0,0,0,0,0,0,0,.1,0,0,0,.1,.1,.2,0,0,0,0,0,0,0,0,.1,.2,.2,.2h0c0,.1,.1,.2,.2,.3,0,.1,.2,.2,.2,.3,2.7,5.6,5.5,11.1,8.2,16.7,.4,.8,.7,1.4,4.1,1.4,1.1,0,1.8,.2,2.1,.6,.5,.5,.3,1.3,.1,1.9-.2,.6-.3,1.2,0,1.6,.6,.7,1.9,1.7,3.1,2.6,1.3,1,2.6,2,3.2,2.7,1.3,1.6,3.8,8.9,3.8,10,0,1-.4,3.7-.4,4.3,.8,1.6,1.5,3.1,2.3,4.7,1.8,.1,6.3,.5,7.2,1.2,.6,.5,5.4,.6,10.7-.8,.6-.2,1.2-.3,1.9-.4,.2,0,.4,0,.6,0,.5,0,1-.1,1.5-.1,.1,0,.2,0,.4,0-.1,0-.2-.1-.3-.2-.5-.4-3.4-2.4-4.9-3.4,0,0,0-.1-.1-.2-.6-1.1-1.3-2.2-1.9-3.4,0,0,.2-.2,.3-.3,.4-.4,1.3-1.7,1.2-2.5,0-.6-.7-1.2-1.2-1.7-.4-.3-.7-.6-.8-.9,0-.1,0-.2,0-.4,0-.2,0-.4,0-.7,0-.3,.1-.7,.2-1,0-.1,0-.3,.1-.4,0-.1,0-.2,.1-.3,0-.3,.2-.5,.2-.5,.9-1.5,1.8-3,2.6-4.6-1.2-1-2.5-2-3.7-2.9-1.4,0-6.2,0-7.2-.4-.3-.1-.5-.3-.5-.6-.1-.9,1.3-2.4,1.9-3,1.5-1.6,2.8-3.3,3-3.8-.6-.8-1.1-3.5-1.3-4.8,0-.2,.6-5,.4-6.3-.2-1.4,1.3-3,2-3.7-.7-1.7-1.5-3.4-2.2-5.1-.8-1.8-.7-5.4-.7-5.5v-.5h.6c0-.2,1.4-.5,3.6-1.4,1.3-.5,2.5-1.1,3.8-1.8,3.7-2,4.1-4.6,4.4-6,0-.1,0-.2,0-.3,.2-1.3,.3-4,.3-5.1,0-.1,0-.3-.2-.5-.2-.4-.4-1-.2-1.6-4.5-.2-11.3-.3-12-.2-.3,0-.6,0-.8-.2-.6-.5,0-2.6,.6-4.3-.4-1.7-.7-3.4-1.1-5.1-.6-1-1.2-2.1-1.9-3.1,1.2-3,2.4-6.1,3.7-9.1,.4-1.4,1-2.9,1.5-4-3.3,.7-6.6,1.4-9.9,2.1Z"/><path class="cls-7" d="M28.6-48.3c.1-.4,.2-.7,.3-1.1,.2-.8,.7-2.9-.2-3.7-.3-.3-.8-.4-1.5-.3-1.3,.2-2.2,.7-2.6,1-.1,.1-.3,.2-.4,.3h0c0,0-.2,0-.4,.1,0,0-.2,0-.3,0,0,0-.1,0-.2,0,0,0,0,0-.1-.1,0,0,0,0-.1-.1,0-.1-.2-.4-.4-.8h0s0,0,0,0c-.3-.7-.6-1.4-1-2.2-.4-1-.8-2-1.2-2.6h0c0-.1,0-.2-.1-.2,0,0,0,0,0-.1,0,0,0,0,0-.1,0,0-.1-.1-.2-.2-.1,0-.3-.2-.4-.3-1-.6-3-1.5-3.6-1.7,0,0-.2,0-.2,0-.9-.4-1.7-.8-2.6-1.2,0,2.1,0,4.2-.1,6.3,.5,.6,3.1,3.5,3.6,4.5,.3,.7,2.6,3.5,4.4,5.9,1,1.3,1.9,2.4,2.3,3.1,1.5,2,3.7,12.6,3.6,15.1,0,1.2,3.8,7,6.7,11.2,3.6,5.3,4.9,7.4,4.8,8.1,0,.6-.2,1.4-.4,2.4-.2,1.4-.5,3.1-.7,4.7-.2,1.8,.2,2.3,.8,3.3,.3,.4,.6,.9,.9,1.6,.5,1.1,1.2,1.5,2.1,2,.8,.5,1.8,1.1,2.7,2.4,1.3,1.9,1.7,3,2,3.7,0,.2,.1,.4,.2,.5,.2,.4,.3,1.4,.5,3,0,1,.2,2.4,.4,2.7,.2,.2,1.5,.6,2.5,.9,1.2,.4,2.6,.8,3.5,1.3,1.6,.9,1.4,2.9,1.2,3.7,.7,.4,2.6,1.6,4.5,2.3,.9,.3,1.5,.9,1.5,1.5,0,.8-.5,1.7-1.8,2.7-.2,.2,0,1.2,.3,1.9,.9,1.1,1.9,2.2,2.8,3.4,.5,.2,3.1,1.4,4.5,2.1,1.7,.9,.9,4.2,.7,5.1,.4,.9,2.2,4.4,2.4,5.6,.2,.9,4,2.5,6.3,3.4,.1,0,.3,.1,.4,.2,2.6,1.1,5.1,.4,5.1,.4h.3c0,0,.1,0,.2,0,1.1,.6,4.2,2.3,4.9,2.5,.6,.2,2.4,.1,3.5,0,0,0,.1,0,.2,0,1.2,.6,2.3,1.2,3.5,1.8,.6,0,3.6,0,6.6-.8,3.5-1.1,5.2-1.5,5.2-1.5,0,0,.1,0,.2,0,1.8,.4,3.6,.9,5.3,1.3,1.3-.1,2.6-.2,3.9-.3-.4-.4-.8-.8-1.2-1.2-1-.8-1.9-1.5-2.9-2.3,0,0,0-.2,0-.2,0-.6,0-2.2-.8-2.8-.6-.5-2.9-.3-4.4-.1h-.5c0-.2-2.3-1.8-3.9-3.9-.1-.1-.2-.3-.3-.4-.3,0-.6,0-1,0-.4,0-.7,0-1.1,0-.3,0-.7,0-1,0-.3,0-.6,0-.9,0-.4,0-.7,0-1,.1-.2,0-.5,0-.8,0-.5,0-1.1,.2-1.5,.3-5.2,1.4-10.7,1.5-11.8,.6-.1-.1-.5-.2-1.1-.3-1.3-.3-3.7-.5-5.8-.7-.1,0-.2,0-.3,0-.9-1.9-1.8-3.7-2.6-5.6,0,0,.4-3.3,.5-4.4,0-.9-2.4-8-3.6-9.4-.6-.7-1.8-1.7-3.1-2.6-1.3-1-2.6-1.9-3.2-2.7-.6-.8-.4-1.7-.2-2.4,.1-.5,.2-.9,0-1.1-.1-.1-.4-.3-1.3-.2-3.8,0-4.5-.8-5.1-1.9-2.7-5.5-5.5-11.1-8.2-16.6-.3-.4-1.5-1.9-1.3-2.8,0,0-.3,0-.4-.1-.5-.2-1.8-.8-.8-2.2,.7-.9-.2-3.6-1-5.2-.8-1.6-1.6-3.2-2.4-4.8-.1-.2-.9-.6-1.5-.9-1.6-.8-2.6-1.4-2.7-2.2,0-.7-1.9-4.1-3.1-6.2-.6-.3-2.9-1.5-2.7-3,0-.4,.3-1,1.1-1.5,1.9-1.2,2.5-3.1,2.6-3.7-.7-1.5-1.4-2.9-2.1-4.4-.2-.4-.5-1-.9-1.7-1.4-2.4-2.3-4.1-2.3-5,0-.7,.3-1.4,.7-2.2,0-.1,.1-.2,.2-.3,.2-.3,.3-.7,.5-1.1,0-.1,0-.3,.1-.4,0,0,0-.1,0-.2,0-.1,0-.3,0-.4,0,0,0,0,0-.1-1.1,.5-2.2,1.1-3.3,1.6Z"/></g></g><g><path class="cls-1" d="M150,0C90.8,0,42.8,48,42.8,107.2c0,56.3,43.4,102.4,98.6,106.8l-22.4,86.1,101.3-112.1c22.5-19.6,36.8-48.6,36.8-80.8C257.2,48,209.2,0,150,0Z"/><g><path class="cls-8" d="M150,0C90.8,0,42.8,48,42.8,107.2c0,56.3,43.4,102.4,98.6,106.8l-22.4,86.1,101.3-112.1c22.5-19.6,36.8-48.6,36.8-80.8C257.2,48,209.2,0,150,0Zm61.2,178.2l-.3,.3-65.1,72,12.7-48.9-8.3-.6h-.2c-25.9,0-49.3-10.5-66.3-27.5-17-17-27.4-40.4-27.4-66.3,0-25.9,10.5-49.3,27.5-66.3,17-17,40.4-27.5,66.3-27.5,25.9,0,49.3,10.5,66.3,27.5,17,17,27.5,40.4,27.5,66.3,0,28.4-12.6,53.8-32.5,71Z"/><path class="cls-8" d="M205.3,60.6l-10.2,8.6c8.7,10.3,13.9,23.5,13.9,37.9,0,11.2-3.3,21.9-9,31l-49.9-66.4-50,66.5c-5.6-9-8.9-19.6-8.9-31,0-14.5,5.2-27.7,13.9-37.9l-10.2-8.6h0c-10.6,12.6-17.1,28.9-17,46.6,0,17.8,6.5,34.1,17.1,46.7l5.4,6.4,49.8-66.2,49.7,66.2,5.4-6.4c10.8-12.7,17.2-29.1,17.2-46.7,0-17.7-6.4-34-17-46.6Z"/></g></g><g class="cls-2"><g><g class="cls-4"><path class="cls-8" d="M604.8,111.2h0l-73.3,285.9,8.1,120.2s0,0,0,0c0,0,0,0,0,0l-131.1,61.8s0,0,0,0c0,0,0,0,0,0l-7.9-99.5-128.5-229s0,0,0-.1,0,0,.1,0l127.2,123,29-114.2-46.8-57s0,0,0,0c0,0,0,0,0,0l92.6-47.3s0,0,.1,0c0,0,0,0,0,.1l-45.7,104,175.9-147.9s0,0,.1,0c0,0,0,0,0,0Zm-73.4,285.7l73.2-285.5-175.9,147.9,102.7,137.6Zm-131.6-23l139.7,143.2-8.1-119.9-131.6-23.3Zm8.8,205.1l130.7-61.6-138.5-37.6,7.8,99.2Zm-7.9-99.4l138.5,37.6-139.6-143.2,1.1,105.6Zm-1.1-105.9l131.6,23.3-102.7-137.4-28.9,114.1Zm28.9-114.5l45.6-104-92.3,47.2,46.6,56.8Zm-155.9-8l128,228.1-1.1-105.5-126.9-122.6Z"/><path class="cls-8" d="M474.4,154.9s0,0,0,0l-92.6,47.3h0l-109.6,48.3s0,0-.1,0c0,0,0,0,0-.1l71.7-139.4L166.7,24.8s0,0,0-.1c0,0,0,0,0,0l181.1-8.8L444.8-1.6s0,0,.1,0c0,0,0,0,0,.1l-100.8,112.4,130.3,43.8s0,0,0,0h0Zm-92.7,47.2l92.3-47.2-130-43.8,37.7,90.9Zm-37.7-91.4L444.6-1.3l-96.6,17.4-4,94.7Zm-71.7,139.6l109.2-48.1-37.7-91-71.5,139.1Zm71.5-139.5l4-94.8-180.7,8.8,176.7,86.1Z"/><path class="cls-8" d="M741.8,423.2s0,0,0,0l-118.8,147.4h0l-132.3,164.2s0,0,0,0c0,0,0,0,0,0l-24.5-63.5-90.1-28.8s0,0,0,0l-86.9-70s0,0,0,0c0,0,0,0,0,0l16.2-10.4-131.8-82.6s0,0,0,0c0,0,0,0,0,0l60.3-59.3-142.9-7.1s0,0,0,0c0,0,0,0,0,0l28.1-85.3-126.7,6s0,0,0,0h0L-381.2,32.6s0,0,0,0h0s0,0,0,0,0,0,0,0h0l69.3-58.6s0,0,0,0L-59.4,58.4,22.1,17.9s0,0,0,0l144.5,6.7,79.6-90.5s0,0,.1,0L347.9,15.8l151.1-151.3,7.7-162.3s0,0,0,0c0,0,0,0,.1,0l93.7,96.4s0,0,0,.1c0,0-.1,0-.1,0l-93.5-96.2-7.7,162.1s0,0,0,0L348,16s0,0-.1,0l-101.4-81.7L166.8,24.8l-1.9,166.9,107.3,58.8s0,0,0,0l43.7,225,84.7,4s0,0,0,0c0,0,0,0,0,.1l-95,82.2,102.8,17.1s0,0,0,0l57.5,92,73.4-153.8s0,0,0,0c0,0,0,0,0,0l83,53.1-91.3-173.2s0,0,0-.1c0,0,0,0,0,0l210.3,26.1s0,0,0,0c0,0,0,0,0,0Zm-118.9,147.3l118.6-147.2-209.9-26.1,91.3,173.3Zm-156.6,100.5l156.4-100.3-83.1-53.2-73.3,153.5Zm24.3,63.7l131.8-163.6-156.3,100.2,24.5,63.4Zm-114.6-92.3l89.8,28.7-57.4-91.9-103-17.1-16.2,10.4,86.8,69.9Zm-70.4-80.7l94.8-82.1-84.5-4-10.3,86Zm-.2,0l10.3-86-81.5-55.4,71.2,141.4Zm-71.3-141.8l81.6,55.5-43.5-224.4-38.1,168.9Zm-60.4,59.4l131.6,82.4-71.3-141.6-60.3,59.2Zm60.3-59.6l38.1-169-152.7,76.6,114.6,92.4Zm-114.7-92.6l152.7-76.6-107.1-58.7-45.6,135.3Zm-28.2,85.5l142.6,7.1-114.5-92.3-28.1,85.2Zm-29.4-190.8l103.1-30.3,1.9-166.5L61.6,221.9Zm57.5,105.2l45.6-135.3-103.1,30.3,57.5,105Zm-57.6-105.3L166.6,24.8,22.3,18.1,61.5,221.8ZM-7.5,333.3l126.5-6-57.5-105L-7.5,333.3Zm-.1-.2L61.3,222.1-27.8,166.1-7.6,333.1ZM-27.8,165.9l89.1,56L22.2,18.4-27.8,165.9Zm-.1-.3L22,18.2-59.3,58.5l31.3,107.1Zm-161,21.7L-7.8,333.1-28,166l-160.9,21.2Zm1.7-78.1L-28.1,165.8-59.4,58.6l-127.8,50.6Zm-1.8,77.9L-28.3,165.9l-159.1-56.5-1.7,77.8Zm1.6-78L-59.7,58.5-311.4-25.9-187.4,109.1ZM-380.5,32.9L-189.2,187l1.7-77.7L-380.5,32.9Zm-.4-.4L-187.8,109-311.8-25.9l-69.1,58.4Z"/><path class="cls-8" d="M846.9,292.8s0,0,0,0c0,0-.1,0-.1,0l-48.6-181.8-40.9,111.9h0s0,0,0,0h0s0,0,0,0h0s0,0,0,0l-152.1-111.5,136.8,311.7s0,0,0,0c0,0,0,0,0,0l-210.3-26.1s0,0,0,0c0,0,0,0,0,0l73.2-285.8L272.2,250.7s0,0-.1,0c0,0,0,0,0-.1l71.7-139.4L-349.8,45.2s0,0,0,0c0,0,0,0,0,0l38-71.2h0l54.6-94.2s0,0,0,0c0,0,0,0,0,0l58.7,75.3,67.2-166.5-171.3-20.4s0,0,0,0c0,0,0,0,0-.1l93.9-98.9s0,0,0,0c0,0,0,0,0,0l77.5,119.3L-5.7-233.1l163.8-45.6s0,0,0,0l85.2,1.5,125.6-57.4h0s0,0,0,0c0,0,0,0,0,0l30.9,104.1,106.7-67.4s0,0,0,0c0,0,0,0,0,0l101.5,195.4,86.2,76.2s0,0,0,0l33.6,70.9h0l28.9,177.8,40.9-111.8s0,0,0,0c0,0,0,0,0,0l48.7,182.1s0,0,0,0Zm-242-181.6l152,111.5-28.9-177.7-123.1,66.3Zm-73.3,285.8l210,26.1L604.7,111.5l-73.2,285.6Zm73.2-286l123.1-66.2L445.2-1.3l159.5,112.4ZM445-1.5l282.8,46.2-228.6-179.9L445-1.5Zm164.1-99.9l118.6,145.6-33.3-70.2-85.3-75.4Zm-109.5-33.7L727.4,44.2l-119.3-146.4-108.6-32.9Zm-25.1,290l130.1-43.7L445-1.3l29.4,156.1Zm-202,95.6L602.2,112.1l-127.9,42.9s0,0,0,0c0,0,0,0,0,0L444.7-1.5h0s0,0,0,0h0l54.2-133.8-194.9-25.7L348,15.9s0,0,0,.1c0,0,0,0-.1,0l-101.4-81.7L166.8,24.8s0,0,0,0h0s0,0,0,0h0s0,0,0,0h0s0,0,0,0h0s0,0,0,0L22.2,18.1-59.3,58.6s0,0,0,0h0L-311.7-25.9l-37.9,71L343.9,110.9s0,0,0,0c0,0,0,0,0,0l-71.6,139.3ZM499.1-135.5l108.9,33-101.3-195.1-106.7,67.3,99.1,94.8Zm-194.9-25.8l194.6,25.7-98.9-94.6-95.7,68.9Zm0-.2l95.6-68.9-30.8-103.9-64.9,172.8Zm-.2,0l64.9-172.9-125.3,57.3,60.4,115.6Zm-57.4,95.6L347.7,15.7l-43.9-176.6-57.3,95.1Zm0-.3l57.3-95-60.3-115.5,3.1,210.5Zm-98.9-137.4L246.3-66.1l-3.1-210.8-95.7,73.3ZM166.9,24.5l79.4-90.2-69.5-24.5-9.9,114.8Zm9.9-115l69.4,24.5-98.5-137.1,29.1,112.6Zm-29.2-113.3l95.5-73.2-84.8-1.5-10.7,74.7ZM166.7,24.6l9.9-114.9-126.4,24.5L166.7,24.6ZM50.1-66l126.4-24.5-29.1-112.8L50.1-66ZM22.3,17.9l144.1,6.7L49.9-65.7,22.3,17.9Zm125-221.6l10.7-74.8L-5.3-233l152.6,29.3ZM49.9-66.1l97.3-137.4L-5.6-232.9,49.9-66.1ZM22.2,17.8l27.6-83.6L-62.7-130.8,22.2,17.8ZM-62.8-131.1L49.7-66.1-5.7-232.8l-57.1,101.6Zm3.5,189.5L22.1,18-62.8-130.7l3.6,189Zm-3.7-189.6L-5.9-232.9l-125,21.3L-63-131.3ZM-198.2-44.8L-59.5,58.3l-3.6-189.2L-198.2-44.8Zm-113.2,18.8L-59.9,58.2-198.4-44.7l-113,18.7Zm113.2-19L-63.1-131.1l-68-80.3L-198.2-45.1Zm-104.1-187.1l171,20.4-77.4-119-93.6,98.6Zm-9.3,206l113-18.7-58.6-75.2-54.4,93.9Z"/></g><g class="cls-3"><path class="cls-8" d="M655.4,174.6s0,0,0,.1l-77.2,198.3-38.2,144.4c0,0,0,.1-.1,.2h0s0,0,0,0h0s0,0,0,0h0s0,0,0,0h0l-131.1,61.8c0,0-.2,0-.3,0,0,0-.2-.1-.2-.3l-7.9-99.4-126.4-143.7c0-.1-.1-.3,0-.4,0-.1,.2-.2,.4-.1l125.2,37.8,70.4-120.6-88.2-50.2c-.1,0-.2-.2-.2-.3,0-.1,0-.2,.2-.3l92.6-47.3c.1,0,.2,0,.3,0s.2,.2,.1,.3h0l-4.1,97.2,184.4-77.8c.1,0,.3,0,.4,0,0,0,.1,.2,0,.2Zm-77.7,197.7l76.8-197.1-183.7,77.6,106.9,119.5Zm-38.3,144.4l38-143.5-177.1,.8,139.1,142.7Zm-139.3-143.3l177-.8-106.8-119.4-70.2,120.2Zm8.7,205.2l129.8-61.2-137.6-37.4,7.8,98.6Zm-7.8-99.2l137.5,37.4-138.7-142.2,1.1,104.8Zm68.9-227.3l4.1-96.6-91.6,46.8,87.5,49.8Zm-194.8,84.4l125.2,142.3-1.1-104.8-124.1-37.5Z"/><path class="cls-8" d="M474.7,154.9c0,.1,0,.2-.2,.3l-92.6,47.3-107.6,133.5c0,.1-.3,.2-.4,0s-.2-.2-.2-.4l69.7-224.5L166.6,25c-.1,0-.2-.2-.2-.4,0-.1,.2-.3,.3-.3l181.1-8.8s0,0,0,0l108.7,13c.1,0,.2,.1,.3,.2,0,.1,0,.3-.1,.3l-112.2,81.7,129.8,43.7c.1,0,.2,.2,.2,.3,0,0,0,0,0,0Zm-92.8,46.9l91.6-46.8-129-43.4,37.4,90.3Zm-37.6-91.4L455.8,29.2l-107.6-12.9-3.9,94.1Zm-69.3,223.9l106.4-132.1-37.4-90.2-69,222.3Zm68.7-223.8l3.9-94.2-179.5,8.7,175.6,85.5Z"/><path class="cls-8" d="M742,423.2c0,0,0,.1,0,.2l-118.8,147.4h0l-132.3,164.2c0,0-.2,.1-.3,.1-.1,0-.2,0-.3-.2l-24.5-63.4-90-28.7s0,0-.1,0l-86.9-70c0,0-.1-.2-.1-.3h0c0-.1,0-.2,.1-.3l15.9-10.2-131.5-82.4c0,0-.1-.1-.1-.2,0,0,0-.2,0-.3l60-58.9-142.3-7.1c-.1,0-.2,0-.3-.1s0-.2,0-.3l28-85-126.3,6c0,0-.2,0-.2,0L-381.3,32.8c0,0,0-.1-.1-.2h0c0,0,0,0,0,0h0c0,0,0,0,0-.1h0s0,0,0,0h0c0,0,0,0,.1-.1h0L-282.2,3.9s0,0,0,0h0s0,0,0,0l148.3,7h0L22.2,17.7h0l144.4,6.7,79.6-90.4c.1-.1,.3-.1,.4,0L347.9,15.6l163.1-89.5,14.3-187.6c0-.1,0-.2,.2-.3s.2,0,.3,0l44.5,35.9c.1,.1,.2,.3,0,.5-.1,.1-.3,.2-.5,0l-44-35.5-14.3,187.2c0,.1,0,.2-.2,.3L348.1,16.2c-.1,0-.3,0-.4,0l-101.2-81.6L167.1,24.9l-28.5,175.7,135.7,135s0,0,0,.1l41.6,139.6,84.6,4c.1,0,.2,0,.3,.2,0,.1,0,.3,0,.4l-94.7,81.9,102.4,17c0,0,.2,0,.2,.1l57.3,91.7,73.2-153.4c0,0,.1-.1,.2-.2,0,0,.2,0,.3,0l82.7,52.9-44.9-197c0-.1,0-.2,0-.3s.2-.1,.3,0l163.9,50.3c.1,0,.2,.1,.2,.2,0,0,0,0,0,.1Zm-118.9,146.7l118.1-146.5-162.9-50,44.8,196.6Zm-156.2,100.4l155.5-99.7-82.6-52.9-72.8,152.6Zm23.9,63.8l130.7-162.2-154.9,99.4,24.3,62.8Zm-114.6-92l89.2,28.5-57-91.3-102.8-17.1-15.9,10.2,86.5,69.7Zm-70.3-81l93.9-81.3-83.7-3.9-10.2,85.2Zm-.6-.3l10.2-85.1-80.6-54.9,70.4,140Zm-70.9-141.1l80.9,55-41.2-138.1-39.7,83.1Zm-60.4,59.5l130.6,81.8-70.7-140.6-59.9,58.8Zm59.9-59.9l39.7-83.3-153.5-8.4,113.8,91.7Zm-114.4-92.4l153.8,8.4L138.5,201.4l-19,125.7Zm-28.1,85.4l141.7,7-113.7-91.6-27.9,84.6Zm46.6-212.2L166.2,26.2,62.3,184.2l75.7,16.1Zm-76.1-16.7L166.2,25,22.6,18.3,61.9,183.7Zm57.1,142.5l18.9-125.2-75.6-16.1,56.7,141.2Zm-126.1,6.9l125.8-5.9L61.7,185.3-7.2,333ZM-63.6,182.6l124.9,1.5L22.1,18.9-63.6,182.6ZM-7.7,332.5L61.2,184.8l-124.9-1.5L-7.7,332.5Zm-56.4-150.4L21.7,18.3l-154.9-6.8L-64.1,182.2Zm-124.2,5.3L-8.4,332.4l-55.9-149.1-123.9,4.2Zm1.2-78.4l122.3,73.1L-133.8,11.9l-53.2,97.2Zm-1.8,77.8l123.6-4.2-121.9-72.9-1.6,77.1Zm1.3-78.2L-134.3,11.5l-147-6.9,93.8,104.1ZM-379.2,33.6L-189.4,186.5l1.6-77.1L-379.2,33.6Zm-.9-1L-188.6,108.4-282.2,4.6l-97.9,28Z"/><path class="cls-8" d="M859.6,89.7h0l-12.5,203.1c0,.2-.2,.3-.3,.3-.2,0-.3-.2-.3-.3h0l12.4-202.4-155.9,112h0s0,0,0,0h0s0,0-.1,0h0s0,0,0,0c0,0,0,0-.1,0h0l-47-27,86.4,247.8c0,.1,0,.2,0,.3,0,0-.2,.1-.3,0l-163.9-50.3c0,0-.2,0-.2-.2,0,0,0-.2,0-.3l77-197.6-380.2,160.9c0,0-.2,0-.3,0,0,0-.1-.1-.2-.2L166.5,25.1-67.5,14.4l-66.3-2.9h0l-71.8-3.4L-424.2-1.8c-.2,0-.3-.2-.3-.3h0c0-.2,.2-.3,.3-.3L-282.4,3.8l-2.1-167.1c0-.1,0-.2,.2-.3,.1,0,.2,0,.3,0l104.1,65.3,54.6-71.7-163.9-22.7c-.1,0-.2,0-.3-.2,0-.1,0-.2,0-.3l83.1-119.8c0,0,.2-.1,.3-.1s.2,0,.3,.2L-124.5-170.5,1.9-212.1h0l167.9-50-76-31.2c-.2,0-.2-.3-.2-.4,0-.2,.3-.2,.4-.2l76.8,31.5c.1,0,.2,.2,.2,.3h0c0,.1,0,.3-.2,.3L2.6-211.6,102.7-97.5h0s0,0,0,0L167,24.6h0s0,0,0,0h0l107.3,310.8,379.5-160.6-179.5-19.5c-.1,0-.3-.1-.3-.3l-17.7-126s0,0,0-.1h0s0,0,0,0l54.7-102.7s0,0,0-.1h0s0,0,0,0l96.8-28.6c0,0,.2,0,.2,0l136.7,69.4c0,0,.1,.1,.2,.2,0,0,0,.2,0,.3l-63.7,98.1,21.6,136,156-112.1c.1,0,.2,0,.3,0,.1,0,.2,.2,.2,.3Zm-281.4,283l163,50.1-86.2-247.2-76.8,197.1Zm102.9-308l63.2-97.4-135.5-68.9,72.3,166.3Zm-25.7,109.8l47,27-21.3-134.4-25.6,107.4Zm-.6-.4l25.9-108.4L457.9,29.5l196.9,144.6Zm-142.8-247.7l168.2,137.9-72.3-166.2-96,28.3Zm-54.9,102.3l222.8,36.1L511.5-73.3l-54.3,102Zm17.5,125.9l179.3,19.5L457.1,29.7l17.6,125ZM22.8,17.7l143.4,6.7-63.8-121.1L22.8,17.7Zm-.6-.3L101.8-96.9l-148,15.1L22.2,17.4ZM-46.2-82.5l148.1-15.1L2.2-211.1-46.2-82.5ZM-67.4,13.8l88.9,3.9L-46.8-81.6-132.9,10.8l65.5,3Zm20.5-96.5L1.5-211.2l-125.6,41.2L-46.9-82.7ZM-133.6,10.6L-47.4-81.9l-131.9-15.5L-133.6,10.6Zm-45.5-108.6l131.7,15.5-77.1-87.1-54.6,71.6Zm-109.3-95.1l163.3,22.6-80.8-141.5-82.5,118.9ZM-205.6,7.5l71.3,3.2-45.6-107.9L-281.3,3.9l75.7,3.6Zm-76.1-4.1l101.4-101.1-103.5-65,2,166.1Z"/><path class="cls-8" d="M348.2,16c0,.1,0,.2-.2,.3-.1,0-.3,0-.3,0l-101.2-81.6L167,25c0,.1-.2,.1-.4,0s-.2-.2-.2-.3l9.9-114.9-73.9-6.9c-.1,0-.2,0-.3-.2,0-.1,0-.3,0-.3l89-86.5L2-211.4c-.1,0-.2-.1-.3-.2,0-.1,0-.3,.1-.3l125.5-85.2c.1-.1,.3,0,.4,0,.1,.1,0,.3,0,.5L2.9-212l188.9,27.3,67.4-77.3c0-.1,.2-.1,.4,0s.2,.2,.2,.3l-13,195,93.9-104.3c0,0,.2-.1,.4,0,.1,0,.2,.2,.2,.3l7,186.8s0,0,0,0Zm-101.3-81.8L347.5,15.3l-6.9-185.3-93.7,104.2Zm-.7-1.3l12.9-193.7-66.7,76.6,53.9,117.2ZM167.2,23.8l78.7-89.4-68.9-24.3-9.8,113.8Zm9.9-114.4l68.8,24.3-53.7-116.9-15,92.6Zm-.6-.1l15-92.6L103.2-97.6l73.2,6.8Z"/></g></g></g></svg>